<svg xmlns="http://www.w3.org/2000/svg" width="70" height="70" viewBox="0 0 70 70"><g id="Group_113" data-name="Group 113" transform="translate(-295 -1152)"><rect id="Rectangle_671" data-name="Rectangle 671" width="70" height="70" rx="5" transform="translate(295 1152)" fill="#91b956"></rect><g id="_05-Microscope" data-name="05-Microscope" transform="translate(73.571 931)"><path id="Path_2056" data-name="Path 2056" d="M273.143,267.429h-4.429a13.364,13.364,0,0,0,4.429-10c0-7.143-5.286-12.858-11.714-12.858a.525.525,0,0,0-.429.143v-4.143a1.349,1.349,0,0,0-1.429-1.428h-1v-1.714A1.349,1.349,0,0,0,257.143,236h-5a1.35,1.35,0,0,0-1.429,1.429v1.714h-1a1.349,1.349,0,0,0-1.428,1.428v17A1.409,1.409,0,0,0,249.571,259v3A1.35,1.35,0,0,0,251,263.429h7.429A1.35,1.35,0,0,0,259.857,262v-3.143A1.391,1.391,0,0,0,261,257.429V247.286c.143,0,.286.143.429.143,4.857,0,8.857,4.428,8.857,10s-4,10-8.857,10H238.857a1.349,1.349,0,0,0-1.428,1.428v5.714A1.349,1.349,0,0,0,238.857,276h34.286a1.349,1.349,0,0,0,1.428-1.429v-5.714a1.349,1.349,0,0,0-1.428-1.428Zm-22-25.429h1a1.349,1.349,0,0,0,1.428-1.429v-1.714h2.143v1.714A1.35,1.35,0,0,0,257.143,242h1v14.143h-7ZM257,260.714h-4.571v-1.571H257Zm14.714,12.429H240.286v-2.857h31.428Z" fill="#fff"></path></g></g></svg>