<svg xmlns="http://www.w3.org/2000/svg" width="70" height="70" viewBox="0 0 70 70"><g id="Group_328" data-name="Group 328" transform="translate(-675 -1152)"><g id="Group_327" data-name="Group 327"><rect id="Rectangle_675" data-name="Rectangle 675" width="70" height="70" rx="5" transform="translate(675 1152)" fill="#4e83ae"></rect></g><g id="_07-Heartbeat" data-name="07-Heartbeat" transform="translate(453.065 931.302)"><path id="Path_2057" data-name="Path 2057" d="M278.028,256.188c1.383-5.837.154-11.521-3.687-15.669-3.994-4.3-8.757-5.838-12.9-4.148a8.734,8.734,0,0,0-4.148,3.226,10.832,10.832,0,0,0-4.148-3.226c-4.3-1.69-8.91-.154-12.9,4.148a16.319,16.319,0,0,0-3.687,15.669v.154c.153.461.307,1.075.461,1.536a26.263,26.263,0,0,0,19.817,17.82h.614a27.539,27.539,0,0,0,20.125-17.666c.154-.461.307-1.076.461-1.536Zm-35.794-13.519c3.072-3.379,6.606-4.608,9.678-3.379,2.151.921,3.687,2.919,3.687,4.3a1.536,1.536,0,1,0,3.072,0c0-1.382,1.537-3.38,3.841-4.3,3.072-1.229,6.452,0,9.678,3.379a12.892,12.892,0,0,1,3.226,11.522H261.129l-3.687,4.763-6.3-13.058-3.994,8.295h-8.142a12.9,12.9,0,0,1,3.226-11.522Zm14.9,29.957a24.3,24.3,0,0,1-17.359-15.362h9.371l2.151-4.3,5.837,11.983,5.684-7.681H274.8C271.883,264.791,264.816,271.09,257.135,272.626Z" fill="#fff"></path></g></g></svg>