<svg xmlns="http://www.w3.org/2000/svg" id="_05-Microscope" data-name="05-Microscope" width="27.867" height="30.011" viewBox="0 0 27.867 30.011"><path id="Path_2056" data-name="Path 2056" d="M264.224,259.581H260.9a10.027,10.027,0,0,0,3.323-7.5c0-5.359-3.966-9.647-8.789-9.647a.394.394,0,0,0-.322.107V239.43a1.012,1.012,0,0,0-1.072-1.071h-.75v-1.286A1.012,1.012,0,0,0,252.22,236h-3.751a1.013,1.013,0,0,0-1.072,1.072v1.286h-.75a1.012,1.012,0,0,0-1.071,1.071v12.755a1.057,1.057,0,0,0,.964,1.072v2.251a1.013,1.013,0,0,0,1.072,1.072h5.574a1.013,1.013,0,0,0,1.071-1.072v-2.358a1.044,1.044,0,0,0,.858-1.071v-7.61c.107,0,.215.107.322.107,3.644,0,6.645,3.322,6.645,7.5s-3,7.5-6.645,7.5H238.5a1.012,1.012,0,0,0-1.071,1.071v4.287a1.012,1.012,0,0,0,1.071,1.072h25.724a1.012,1.012,0,0,0,1.071-1.072v-4.287a1.012,1.012,0,0,0-1.071-1.071ZM247.718,240.5h.75a1.012,1.012,0,0,0,1.071-1.072v-1.286h1.608v1.286a1.013,1.013,0,0,0,1.072,1.072h.75v10.611h-5.252Zm4.394,14.041h-3.43v-1.179h3.43Zm11.04,9.325h-23.58v-2.144h23.58Z" transform="translate(-237.429 -236)" fill="#fff"></path></svg>