<svg xmlns="http://www.w3.org/2000/svg" width="19.365" height="15.217" viewBox="0 0 19.365 15.217"><path id="Path_2062" data-name="Path 2062" d="M22.13,16.194a13.728,13.728,0,0,0-18.9,0,.82.82,0,0,0,0,1.146l2,2a.807.807,0,0,0,.573.233.824.824,0,0,0,.565-.226,9.173,9.173,0,0,1,2.146-1.492.8.8,0,0,0,.452-.726v-2.5a11.8,11.8,0,0,1,3.712-.59,12.05,12.05,0,0,1,3.712.581v2.5a.811.811,0,0,0,.452.726,9.278,9.278,0,0,1,2.146,1.493.793.793,0,0,0,.565.226.8.8,0,0,0,.572-.235l2-2a.806.806,0,0,0,0-1.137ZM20.073,7.8,18.936,6.657,16.064,9.522,17.2,10.659S19.985,7.819,20.073,7.8ZM13.489,4.357H11.875V8.391h1.614Zm-5.325,6.3L9.3,9.521,6.437,6.648,5.291,7.8C5.38,7.819,8.164,10.659,8.164,10.659Z" transform="translate(-3 -4.357)" fill="#052370"></path></svg>