<svg xmlns="http://www.w3.org/2000/svg" width="70" height="70" viewBox="0 0 70 70"><g id="Group_329" data-name="Group 329" transform="translate(-1055 -1149)"><rect id="Rectangle_678" data-name="Rectangle 678" width="70" height="70" rx="5" transform="translate(1055 1149)" fill="#f74e41"></rect><g id="_18-Monitor_heart_rate" data-name="18-Monitor heart rate" transform="translate(834 927.85)"><path id="Path_2058" data-name="Path 2058" d="M275.5,238.15h-39a1.417,1.417,0,0,0-1.5,1.5v32.7a1.417,1.417,0,0,0,1.5,1.5h39a1.417,1.417,0,0,0,1.5-1.5v-32.7A1.417,1.417,0,0,0,275.5,238.15Zm-1.5,32.7H238V257.5h3.6l4.05,6.75a1.59,1.59,0,0,0,2.7,0l7.65-12.9,3.15,5.4a1.575,1.575,0,0,0,1.35.75H268a1.5,1.5,0,0,0,0-3h-6.6l-4.05-6.75a1.54,1.54,0,0,0-2.55,0l-7.8,12.9-3.15-5.4a1.575,1.575,0,0,0-1.35-.75H238V241.15h36Z" fill="#fff"></path></g></g></svg>