<svg xmlns="http://www.w3.org/2000/svg" width="39" height="39" viewBox="0 0 39 39"><g id="Group_326" data-name="Group 326" transform="translate(-348 -3797)"><circle id="Ellipse_60" data-name="Ellipse 60" cx="19.5" cy="19.5" r="19.5" transform="translate(348 3797)" fill="#91ba56"></circle><path id="Path_2063" data-name="Path 2063" d="M6.62,10.79a15.149,15.149,0,0,0,6.59,6.59l2.2-2.2a.994.994,0,0,1,1.02-.24,11.407,11.407,0,0,0,3.57.57,1,1,0,0,1,1,1V20a1,1,0,0,1-1,1A17,17,0,0,1,3,4,1,1,0,0,1,4,3H7.5a1,1,0,0,1,1,1,11.36,11.36,0,0,0,.57,3.57,1,1,0,0,1-.25,1.02Z" transform="translate(356 3805)" fill="#fff"></path></g></svg>